HIERARCHY
ROOT root
{
	OFFSET 0.000000 0.000000 0.000000
	CHANNELS 6 Xposition Yposition Zposition Zrotation Yrotation Xrotation
	JOINT lhip
	{
		OFFSET 0.058581 -0.082280 -0.017664
		CHANNELS 3 Zrotation Yrotation Xrotation
		JOINT lknee
		{
			OFFSET 0.043451 -0.386469 0.008037
			CHANNELS 3 Zrotation Yrotation Xrotation
			JOINT lankle
			{
				OFFSET -0.014790 -0.426874 -0.037428
				CHANNELS 3 Zrotation Yrotation Xrotation
				JOINT ltoe
				{
					OFFSET 0.041054 -0.060286 0.122042
					CHANNELS 3 Zrotation Yrotation Xrotation
					End Site
					{
						OFFSET 0.000000 0.000000 0.000000
					}
				}
			}
		}
	}
	JOINT rhip
	{
		OFFSET -0.060310 -0.090513 -0.013543
		CHANNELS 3 Zrotation Yrotation Xrotation
		JOINT rknee
		{
			OFFSET -0.043257 -0.383688 -0.004843
			CHANNELS 3 Zrotation Yrotation Xrotation
			JOINT rankle
			{
				OFFSET 0.019056 -0.420046 -0.034562
				CHANNELS 3 Zrotation Yrotation Xrotation
				JOINT rtoe
				{
					OFFSET -0.034840 -0.062106 0.130323
					CHANNELS 3 Zrotation Yrotation Xrotation
					End Site
					{
						OFFSET 0.000000 0.000000 0.000000
					}
				}
			}
		}
	}
	JOINT lowerback
	{
		OFFSET 0.004439 0.124404 -0.038385
		CHANNELS 3 Zrotation Yrotation Xrotation
		JOINT upperback
		{
			OFFSET 0.004488 0.137956 0.026820
			CHANNELS 3 Zrotation Yrotation Xrotation
			JOINT chest
			{
				OFFSET -0.002265 0.056032 0.002855
				CHANNELS 3 Zrotation Yrotation Xrotation
				JOINT lowerneck
				{
					OFFSET -0.013390 0.211636 -0.033468
					CHANNELS 3 Zrotation Yrotation Xrotation
					JOINT upperneck
					{
						OFFSET 0.010113 0.088937 0.050410
						CHANNELS 3 Zrotation Yrotation Xrotation
						End Site
						{
							OFFSET 0.000000 0.000000 0.000000
						}
					}
				}
				JOINT lclavicle
				{
					OFFSET 0.071702 0.114000 -0.018898
					CHANNELS 3 Zrotation Yrotation Xrotation
					JOINT lshoulder
					{
						OFFSET 0.122921 0.045205 -0.019046
						CHANNELS 3 Zrotation Yrotation Xrotation
						JOINT lelbow
						{
							OFFSET 0.255332 -0.015649 -0.022946
							CHANNELS 3 Zrotation Yrotation Xrotation
							JOINT lwrist
							{
								OFFSET 0.265709 0.012698 -0.007375
								CHANNELS 3 Zrotation Yrotation Xrotation
								End Site
								{
									OFFSET 0.000000 0.000000 0.000000
								}
							}
						}
					}
				}
				JOINT rclavicle
				{
					OFFSET -0.082954 0.112472 -0.023707
					CHANNELS 3 Zrotation Yrotation Xrotation
					JOINT rshoulder
					{
						OFFSET -0.113228 0.046853 -0.008472
						CHANNELS 3 Zrotation Yrotation Xrotation
						JOINT relbow
						{
							OFFSET -0.260127 -0.014369 -0.031269
							CHANNELS 3 Zrotation Yrotation Xrotation
							JOINT rwrist
							{
								OFFSET -0.269108 0.006794 -0.006027
								CHANNELS 3 Zrotation Yrotation Xrotation
								End Site
								{
									OFFSET 0.000000 0.000000 0.000000
								}
							}
						}
					}
				}
			}
		}
	}
}
MOTION
Frames: 10
Frame Time: 0.033333
0.005761 0.258465 0.999606 175.910551 2.397266 97.999912 2.575186 2.905570 -0.294402 1.998484 3.400845 -7.154175 -0.830290 10.156630 -5.005676 0.000000 -0.000000 0.000000 -3.484547 -0.292677 -5.964987 0.356196 -2.212612 1.616322 7.570407 -4.084981 -5.045378 0.000000 -0.000000 0.000000 -3.320456 -0.090079 -6.254180 5.208704 -3.756535 1.067430 1.119004 -1.796442 -6.469961 -1.558734 1.491034 9.109288 5.615920 6.589511 -6.793087 -17.070808 14.356607 -4.125627 -67.241468 -3.309642 19.282350 39.332378 -37.810595 -41.974289 21.357124 -2.683173 -37.997566 14.677127 -16.501067 -6.430791 53.585579 -7.119340 12.700665 -129.883551 66.247967 -136.069969 -26.988379 -1.217206 -54.685008 
0.007678 0.259037 0.999606 173.636295 2.901485 97.362016 2.929712 3.931463 1.231689 1.996262 4.010890 -7.819834 -1.246640 10.752181 -4.944981 0.000000 -0.000000 0.000000 -3.160914 0.060943 -5.512522 0.477921 -0.725161 1.459158 8.079705 -3.957886 -4.962203 0.000000 -0.000000 0.000000 -1.786180 0.052078 -5.858734 4.707915 -3.511820 0.566684 0.947864 -2.000814 -6.241568 -0.811562 2.950729 9.511841 4.063312 6.859779 -6.323637 -16.877907 12.862816 -3.625708 -67.088034 -3.397207 16.827559 39.244819 -38.856078 -40.608361 20.007050 -3.579847 -37.813157 14.269038 -14.950895 -3.858519 54.329033 -6.664551 10.224726 -131.674542 65.862065 -137.374472 -26.902202 -1.235673 -54.921782 
0.009370 0.258480 0.999211 172.127131 3.236731 97.368892 3.168226 4.319337 1.424942 2.047787 4.830410 -7.758320 -1.302750 10.966696 -4.909999 0.000000 -0.000000 0.000000 -3.061992 0.459788 -5.736391 0.732282 -0.305716 1.360074 7.971828 -3.338091 -4.739883 0.000000 -0.000000 0.000000 -0.901734 -0.343234 -5.694894 4.962007 -3.515950 -0.346026 0.736781 -1.697837 -5.869189 -1.091291 3.829095 9.883725 3.230345 7.558494 -6.062259 -16.609927 12.281730 -3.429909 -67.164857 -3.726999 17.288426 39.689610 -39.091750 -40.476492 19.695033 -3.934346 -38.406372 13.391438 -14.907978 -3.136685 55.688691 -6.549731 10.291622 -131.928939 65.132719 -138.108269 -27.740187 -1.621887 -54.390716 
0.011475 0.258292 0.999002 170.366115 3.440783 97.205234 3.237248 4.702930 1.908001 2.082285 5.811527 -7.857995 -1.231695 11.238845 -4.908549 0.000000 -0.000000 0.000000 -3.025588 0.890278 -5.906034 0.940344 0.113263 1.388093 7.992366 -2.526481 -4.542551 0.000000 -0.000000 0.000000 -0.316278 -0.623810 -5.760771 5.225378 -3.648132 -0.495793 0.697956 -1.526022 -5.849426 -1.359255 5.039585 10.480556 2.349738 8.268839 -5.740664 -16.414658 11.625638 -3.116568 -67.394272 -4.235005 17.566073 40.846049 -39.052351 -40.738318 19.427356 -4.255020 -38.086667 13.281830 -14.601927 -2.744637 56.547432 -6.708240 10.674041 -131.657139 64.296820 -137.302974 -27.468831 -1.515991 -54.002247 
0.012435 0.257559 0.998740 169.708346 3.486724 97.336822 3.206510 4.775190 1.648481 2.174568 6.251094 -7.508944 -1.492878 11.348289 -4.953820 0.000000 -0.000000 0.000000 -2.991344 1.090626 -6.327725 0.938881 0.128826 1.570100 8.002855 -2.185619 -4.429462 0.000000 -0.000000 0.000000 -0.034694 -0.855901 -5.867042 5.392167 -3.835410 -0.569429 0.700395 -1.493892 -5.962919 -1.752545 5.688595 10.965908 2.105711 8.851456 -5.758708 -16.359148 11.497529 -2.927521 -67.550877 -4.673655 17.636343 41.147734 -39.233961 -40.846190 19.848124 -4.280128 -37.904287 13.197595 -14.646935 -2.490552 57.051900 -6.427643 10.742936 -131.820197 64.055334 -137.664818 -28.073407 -1.592258 -53.493016 
0.013749 0.257691 0.998747 168.884797 3.505979 97.178732 3.176137 4.992046 1.945223 2.209512 6.731731 -7.500781 -1.639026 11.427885 -4.978603 0.000000 -0.000000 0.000000 -3.022456 1.359978 -6.322382 1.026341 0.248872 1.615188 8.009788 -1.822729 -4.331602 0.000000 -0.000000 0.000000 0.156764 -1.095078 -5.986039 5.627196 -3.982699 -0.465310 0.675676 -1.623800 -6.071271 -1.759190 6.399167 11.542703 1.632632 9.452050 -5.347503 -16.233338 11.704885 -2.898542 -67.885463 -5.089769 17.821926 41.554375 -39.435877 -40.660519 19.568544 -4.729135 -38.044829 13.300928 -14.997286 -2.647251 57.679974 -6.027714 11.356392 -131.082563 64.123995 -136.610591 -28.265097 -1.714696 -53.596713 
0.015328 0.257725 0.998746 168.393790 3.530361 97.052152 3.252997 5.142715 2.195712 2.202939 6.946885 -7.528770 -1.633771 11.596968 -5.046974 0.000000 -0.000000 0.000000 -2.957139 1.436056 -6.219462 1.075059 0.572685 1.557989 8.059810 -1.695557 -4.256166 0.000000 -0.000000 0.000000 0.201886 -1.216973 -6.088485 5.813983 -4.136113 -0.369827 0.716597 -1.603231 -6.081646 -1.974934 6.670780 11.907399 1.525092 9.963803 -5.202000 -16.194561 11.462735 -2.720776 -67.990795 -5.424416 17.979474 41.826440 -39.716329 -40.039971 19.807028 -4.292354 -38.417743 13.404060 -15.191196 -2.745679 58.129444 -6.179016 11.338694 -131.131686 64.164496 -136.385593 -28.323987 -1.840017 -53.487318 
0.016632 0.257476 0.998613 168.044458 3.498889 96.923951 3.252219 5.211042 2.387505 2.217730 7.158237 -7.538842 -1.567272 11.632111 -5.081563 0.000000 -0.000000 0.000000 -2.982189 1.553508 -6.153099 1.157649 0.692427 1.574469 8.070444 -1.498999 -4.273951 0.000000 -0.000000 0.000000 0.297320 -1.274210 -6.066712 5.864558 -4.203688 -0.291250 0.724027 -1.615088 -6.099319 -1.961503 7.000869 12.095398 1.407047 10.337231 -5.124202 -16.225080 11.397433 -2.601324 -68.307411 -5.757837 18.002384 42.123172 -40.106247 -40.434679 20.019985 -4.441460 -38.322119 13.557752 -15.245884 -2.662580 58.517358 -6.175343 11.270188 -130.916633 64.091942 -135.929954 -28.096780 -1.647212 -53.268328 
0.017811 0.257046 0.998407 168.009493 3.407456 96.845945 3.217994 5.253157 2.402994 2.289353 7.156887 -7.428612 -1.654412 11.616979 -5.107664 0.000000 -0.000000 0.000000 -3.041238 1.592771 -6.091198 1.209925 0.686990 1.577476 8.010660 -1.484478 -4.249922 0.000000 -0.000000 0.000000 0.432507 -1.268066 -6.060948 5.810534 -4.289185 -0.198007 0.691460 -1.686699 -6.176860 -2.088210 7.084928 12.242367 1.343803 10.426673 -4.960384 -16.341634 11.163567 -2.514007 -68.532565 -5.868639 18.222789 42.546289 -40.181975 -40.792316 20.315935 -4.350819 -38.581393 13.577167 -15.266914 -2.686390 58.656081 -6.444864 11.377152 -130.930193 64.163319 -135.870868 -28.818413 -1.846201 -52.959547 
0.019258 0.256249 0.998397 168.222840 3.329743 96.770241 3.262029 5.183620 2.378123 2.328028 7.098217 -7.327735 -1.624844 11.572194 -5.089144 0.000000 -0.000000 0.000000 -3.029182 1.469476 -5.956884 1.249963 0.669628 1.516638 8.024532 -1.481132 -4.317408 0.000000 -0.000000 0.000000 0.543401 -1.312887 -6.064764 5.736931 -4.358295 -0.045898 0.646862 -1.582919 -6.224025 -2.045766 6.974018 12.304419 1.354493 10.533012 -4.981116 -16.481678 11.063214 -2.449313 -68.883052 -5.959185 18.315025 42.667881 -40.373021 -40.923034 20.341511 -4.248241 -38.559424 13.444542 -15.194001 -2.449561 58.819360 -6.638124 11.301915 -131.024234 64.292484 -135.731664 -27.807427 -1.850012 -53.687057 
